# AST/ASF file generated using VICON BodyLanguage
# -----------------------------------------------
:version 1.10
:name VICON
:units
  mass 1.0
  length 0.45
  angle deg
:documentation
   .ast/.asf automatically generated from VICON data using
   VICON BodyBuilder and BodyLanguage model FoxedUp or BRILLIANT.MOD
:root
   order TX TY TZ RX RY RZ
   axis XYZ
   position 0 0 0  
   orientation 0 0 0 
:bonedata
  begin
     id 1 
     name lhipjoint
     direction 0.690799 -0.707083 0.151096 
     length 2.54797 
     axis 0 0 0  XYZ
  end
  begin
     id 2 
     name lfemur
     direction 0.34202 -0.939693 0  
     length 7.21646  
     axis 0 0 20  XYZ
    dof rx ry rz
    limits (-160.0 20.0)
           (-70.0 70.0)
           (-60.0 70.0)
  end
  begin
     id 3 
     name ltibia
     direction 0.34202 -0.939693 0   
     length 8.16759   
     axis 0 0 20   XYZ
    dof rx
    limits (-10.0 170.0)
  end
  begin
     id 4 
     name lfoot
     direction 0.0487203 -0.133858 0.989802   
     length 1.93375   
     axis -90 7.62852e-016 20   XYZ
    dof rx rz
    limits (-45.0 90.0)
           (-70.0 20.0)
  end
  begin
     id 5 
     name ltoes
     direction 1.53453e-011 -4.21783e-011 1   
     length 0.979747   
     axis -90 7.62852e-016 20   XYZ
    dof rx
    limits (-90.0 20.0)
  end
  begin
     id 6 
     name rhipjoint
     direction -0.694693 -0.703425 0.150315   
     length 2.56122  
     axis 0 0 0  XYZ 
  end
  begin
     id 7 
     name rfemur
     direction -0.34202 -0.939693 0   
     length 7.36786   
     axis 0 0 -20   XYZ
    dof rx ry rz
    limits (-160.0 20.0)
           (-70.0 70.0)
           (-70.0 60.0)
  end
  begin
     id 8 
     name rtibia
     direction -0.34202 -0.939693 0   
     length 8.07288   
     axis 0 0 -20   XYZ
    dof rx
    limits (-10.0 170.0)
 end
 begin
     id 9 
     name rfoot
     direction -0.0428397 -0.117701 0.992125   
     length 1.88295  
     axis -90 -7.62852e-016 -20   XYZ
    dof rx rz
    limits (-45.0 90.0)
           (-20.0 70.0)
  end
  begin
     id 10 
     name rtoes
     direction -1.53456e-011 -4.2187e-011 1   
     length 0.955578   
     axis -90 -7.62852e-016 -20   XYZ
    dof rx
    limits (-90.0 20.0)
  end
  begin
     id 11 
     name lowerback
     direction 0.0288145 0.999398 -0.0193241   
     length 1.92149   
     axis 0 0 0   XYZ
    dof rx ry rz
    limits (-20.0 45.0)
           (-30.0 30.0)
           (-30.0 30.0)
  end
  begin
     id 12 
     name upperback
     direction 0.0233784 0.998099 0.0570278   
     length 1.90435   
     axis 0 0 0   XYZ
    dof rx ry rz
    limits (-20.0 45.0)
           (-30.0 30.0)
           (-30.0 30.0)
  end
  begin
     id 13 
     name thorax
     direction 0.0096694 0.997833 0.0650817   
     length 1.9111   
     axis 0 0 0   XYZ
    dof rx ry rz
    limits (-20.0 45.0)
           (-30.0 30.0)
           (-30.0 30.0)
  end
  begin
     id 14 
     name lowerneck
     direction 0.00516803 0.999916 0.0118722   
     length 1.74664   
     axis 0 0 0   XYZ
    dof rx ry rz
    limits (-20.0 45.0)
           (-30.0 30.0)
           (-30.0 30.0)
  end
  begin
     id 15 
     name upperneck
     direction -0.0510851 0.996117 -0.071696   
     length 1.68498   
     axis 0 0 0   XYZ
    dof rx ry rz
    limits (-20.0 45.0)
           (-30.0 30.0)
           (-30.0 30.0)
  end
  begin
     id 16
     name head
     direction -0.019188 0.999436 -0.0275702  
     length 1.83483  
     axis 0 0 0   XYZ
    dof rx ry rz
    limits (-20.0 45.0)
           (-30.0 30.0)
           (-30.0 30.0)
  end
  begin
     id 17 
     name lclavicle
     direction 0.967006 0.248456 -0.0562957  
     length 3.39395  
     axis 0 0 0   XYZ
    dof ry rz
    limits (-20.0 10.0)
           (0.0 20.0)
  end
  begin
     id 18 
     name lhumerus
     direction 1 -4.48962e-011 -5.62711e-019   
     length 5.24318   
     axis 180 -30 -90   XYZ
    dof rx ry rz
    limits (-60.0 90.0)
           (-90.0 90.0)
           (-90.0 90.0)
  end
  begin
     id 19
     name lradius
     direction 1 -4.48966e-011 7.90625e-027   
     length 2.98999   
     axis 180 -30 -90   XYZ
    dof rx
    limits (-10.0 170.0)
  end
  begin
     id 20
     name lwrist
     direction 1 -4.48959e-011 1.61068e-026   
     length 1.49499   
     axis -9.31229e-015 90 90   XYZ
    dof ry
    limits (-180.0 0.0)
 end
  begin
     id 21 
     name lhand
     direction 1 -4.49017e-011 3.22136e-026   
     length 0.726745   
     axis -2.0555e-014 90 90   XYZ
    dof rx rz
    limits (-90.0 90.0)
           (-45.0 45.0)
  end
  begin
     id 22 
     name lfingers
     direction 1 -4.4898e-011 6.44272e-026   
     length 0.58592   
     axis -4.11101e-014 90 90   XYZ
    dof rx
    limits (0.0 90.0)
  end
  begin
     id 23
     name lthumb
     direction 0.707107 -6.34922e-011 0.707107   
     length 0.841268   
     axis -90 45 2.85299e-015   XYZ
    dof rx rz
    limits (-45.0 45.0)
           (-45.0 45.0)
  end
  begin
     id 24 
     name rclavicle
     direction -0.972232 0.230238 0.0419005   
     length 3.40416  
     axis 0 0 0   XYZ 
    dof ry rz
    limits (-10.0 20.0)
           (-20.0 0.0)
  end
  begin
     id 25 
     name rhumerus
     direction -1 -4.48976e-011 2.48487e-027  
     length 5.37045   
     axis 180 30 90   XYZ
    dof rx ry rz
    limits (-90.0 60.0)
           (-90.0 90.0)
           (-90.0 90.0)
  end
  begin
     id 26 
     name rradius
     direction -1 -4.48942e-011 7.87951e-027   
     length 2.92792   
     axis 180 30 90   XYZ
    dof rx
    limits (-10.0 170.0)
  end
  begin
     id 27 
     name rwrist
     direction -1 -4.48969e-011 1.61068e-026   
     length 1.46396   
     axis -9.31229e-015 -90 -90   XYZ
    dof ry
    limits (-180.0 0.0)
  end
  begin
     id 28
     name rhand
     direction -1 -4.49043e-011 3.22136e-026   
     length 0.784497   
     axis -2.0555e-014 -90 -90   XYZ
    dof rx rz
    limits (-90.0 90.0)
           (-45.0 45.0)
  end
  begin
     id 29
     name rfingers
     direction -1 -4.48823e-011 6.44272e-026   
     length 0.632482   
     axis -4.11101e-014 -90 -90   XYZ
    dof rx
    limits (0.0 90.0)
  end
  begin
     id 30
     name rthumb
     direction -0.707107 -6.34923e-011 0.707107   
     length 0.908121   
     axis -90 -45 -2.85299e-015   XYZ
    dof rx rz
    limits (-45.0 45.0)
           (-45.0 45.0)
  end
:hierarchy
  begin
    root lhipjoint rhipjoint lowerback
    lhipjoint lfemur
    lfemur ltibia
    ltibia lfoot
    lfoot ltoes
    rhipjoint rfemur
    rfemur rtibia
    rtibia rfoot
    rfoot rtoes
    lowerback upperback
    upperback thorax
    thorax lowerneck lclavicle rclavicle
    lowerneck upperneck
    upperneck head
    lclavicle lhumerus
    lhumerus lradius
    lradius lwrist
    lwrist lhand lthumb
    lhand lfingers
    rclavicle rhumerus
    rhumerus rradius
    rradius rwrist
    rwrist rhand rthumb
    rhand rfingers
  end

#!OML:ASF E:\Style6\Style6.ASF
:FULLY-SPECIFIED
:DEGREES
285
root 0.22548 17.8926 0.728294 10.7387 -3.14035 -2.30836
lowerback 0.806993 -1.15149 0.319245
upperback -6.35055 -1.35993 3.04812
thorax -7.00234 -0.594544 3.10469
lowerneck -9.84286 1.28828 5.06424
upperneck 12.9301 1.84543 -6.20943
head 5.61881 0.699977 -2.64514
rclavicle 2.18663e-015 -1.74931e-014
rhumerus 4.28036 -41.4645 14.5656
rradius 75.0646
rwrist 20.7166
rhand 27.1877 1.00066
rfingers 7.12502
rthumb 51.1618 -19.59
lclavicle 2.18663e-015 -1.74931e-014
lhumerus -107.418 -53.6068 136.696
lradius 92.6221
lwrist 24.7778
lhand 5.32061 6.44266
lfingers 7.12502
lthumb 30.6757 33.9054
rfemur -19.7919 0.143556 21.6059
rtibia 26.675
rfoot -11.2965 -7.07004
rtoes -10.504
lfemur -20.4188 2.62505 -15.7863
ltibia 30.123
lfoot -13.6924 4.18853
ltoes -23.6593
286
root 0.223082 17.8934 0.727885 10.7797 -3.0944 -2.45625
lowerback 0.814848 -1.15034 0.441279
upperback -6.36804 -1.34907 3.09981
thorax -7.02811 -0.594167 3.09061
lowerneck -9.88412 1.27442 5.07688
upperneck 12.9961 1.82915 -6.23382
head 5.64576 0.689924 -2.65679
rclavicle -2.93456e-014 7.15625e-015
rhumerus 4.33309 -41.5019 14.586
rradius 74.9497
rwrist 20.9952
rhand 27.1452 1.13146
rfingers 7.12502
rthumb 51.1231 -19.481
lclavicle -2.93456e-014 7.15625e-015
lhumerus -107.432 -53.6207 136.773
lradius 92.5728
lwrist 24.7604
lhand 5.33725 6.39681
lfingers 7.12502
lthumb 30.6916 33.8566
rfemur -19.798 0.165088 21.7784
rtibia 26.6209
rfoot -11.234 -7.14485
rtoes -10.4568
lfemur -20.4899 2.63414 -15.6117
ltibia 30.1556
lfoot -13.6927 4.20634
ltoes -23.9493
287
root 0.220342 17.892 0.728023 10.8031 -3.05224 -2.59638
lowerback 0.797734 -1.15452 0.559021
upperback -6.36319 -1.34685 3.14909
thorax -7.0149 -0.598423 3.07554
lowerneck -9.87565 1.27098 5.08876
upperneck 13.0324 1.82901 -6.26525
head 5.65597 0.688124 -2.66908
rclavicle -2.76808e-014 1.43125e-014
rhumerus 4.36231 -41.5297 14.6031
rradius 74.8481
rwrist 21.1638
rhand 27.0029 1.24231
rfingers 7.12502
rthumb 50.9934 -19.4428
lclavicle -2.76808e-014 1.43125e-014
lhumerus -107.435 -53.6214 136.821
lradius 92.5806
lwrist 24.7436
lhand 5.25326 6.47817
lfingers 7.12502
lthumb 30.6115 33.953
rfemur -19.7876 0.219675 21.9396
rtibia 26.5646
rfoot -11.1805 -7.20181
rtoes -10.1155
lfemur -20.5509 2.63687 -15.436
ltibia 30.1799
lfoot -13.6674 4.21252
ltoes -24.263
288
root 0.218577 17.8909 0.728173 10.8418 -3.01266 -2.63653
lowerback 0.752985 -1.15693 0.593605
upperback -6.34597 -1.34878 3.16956
thorax -6.97076 -0.60121 3.07585
lowerneck -9.93776 1.27719 5.00006
upperneck 13.1081 1.84363 -6.20693
head 5.68994 0.693687 -2.63527
rclavicle -7.37988e-015 1.86858e-014
rhumerus 4.32974 -41.5662 14.6661
rradius 74.7702
rwrist 21.2273
rhand 26.8706 1.27494
rfingers 7.12502
rthumb 50.8728 -19.4772
lclavicle -7.37988e-015 1.86858e-014
lhumerus -107.345 -53.6458 136.81
lradius 92.557
lwrist 24.7746
lhand 5.15952 6.51922
lfingers 7.12502
lthumb 30.5221 34.0107
rfemur -19.7911 0.230922 21.9885
rtibia 26.4987
rfoot -11.2156 -7.17723
rtoes -9.51605
lfemur -20.6259 2.62998 -15.3821
ltibia 30.2012
lfoot -13.6344 4.22175
ltoes -24.6196
289
root 0.217099 17.8928 0.727751 10.8514 -2.98056 -2.59591
lowerback 0.7566 -1.14582 0.555947
upperback -6.33169 -1.33653 3.15616
thorax -6.95748 -0.593543 3.08174
lowerneck -9.98762 1.27156 4.93523
upperneck 13.1583 1.83857 -6.15343
head 5.71288 0.690845 -2.60829
rclavicle -2.60905e-015 2.0276e-014
rhumerus 4.25294 -41.5701 14.7628
rradius 74.689
rwrist 21.2781
rhand 26.6695 1.20287
rfingers 7.12502
rthumb 50.6893 -19.6503
lclavicle -2.60905e-015 2.0276e-014
lhumerus -107.305 -53.7179 136.841
lradius 92.5206
lwrist 24.7878
lhand 5.14059 6.59544
lfingers 7.12502
lthumb 30.5041 34.0902
rfemur -19.7774 0.211243 21.9499
rtibia 26.4498
rfoot -11.1303 -7.13475
rtoes -9.27194
lfemur -20.637 2.63042 -15.4273
ltibia 30.2064
lfoot -13.6196 4.19862
ltoes -24.7
290
root 0.214998 17.8951 0.729139 10.8529 -2.93131 -2.59377
lowerback 0.799635 -1.16702 0.542595
upperback -6.36629 -1.3629 3.1704
thorax -7.01781 -0.604625 3.10842
lowerneck -9.94618 1.27814 4.98032
upperneck 13.1629 1.85267 -6.22477
head 5.709 0.695402 -2.63742
rclavicle -5.8393e-015 7.95139e-016
rhumerus 4.33067 -41.5321 14.7346
rradius 74.579
rwrist 21.3476
rhand 26.5481 1.22971
rfingers 7.12502
rthumb 50.5786 -19.6838
lclavicle -5.8393e-015 7.95139e-016
lhumerus -107.275 -53.6363 136.836
lradius 92.5011
lwrist 24.7443
lhand 5.08509 6.60281
lfingers 7.12502
lthumb 30.4511 34.1074
rfemur -19.7599 0.167325 21.9684
rtibia 26.4367
rfoot -11.0561 -7.13506
rtoes -9.68211
lfemur -20.6118 2.58775 -15.4169
ltibia 30.1833
lfoot -13.615 4.19849
ltoes -24.4195
291
root 0.213335 17.8932 0.730201 10.8756 -2.90095 -2.67159
lowerback 0.77583 -1.17659 0.624221
upperback -6.37829 -1.37073 3.19667
thorax -7.01795 -0.612344 3.09041
lowerneck -9.93507 1.26229 4.98241
upperneck 13.1648 1.83665 -6.26139
head 5.70702 0.685196 -2.65073
rclavicle -1.84124e-014 -9.54166e-015
rhumerus 4.41608 -41.5435 14.6835
rradius 74.4138
rwrist 21.4196
rhand 26.3227 1.28106
rfingers 7.12502
rthumb 50.3726 -19.7438
lclavicle -1.84124e-014 -9.54166e-015
lhumerus -107.189 -53.6022 136.752
lradius 92.4883
lwrist 24.6819
lhand 5.10874 6.61454
lfingers 7.12502
lthumb 30.4737 34.115
rfemur -19.7658 0.166779 22.0608
rtibia 26.4259
rfoot -11.1913 -7.13957
rtoes -9.45084
lfemur -20.634 2.56457 -15.3103
ltibia 30.1672
lfoot -13.6652 4.15697
ltoes -23.8065
292
root 0.211948 17.8927 0.730698 10.897 -2.91455 -2.59295
lowerback 0.737812 -1.16405 0.537326
upperback -6.3797 -1.36057 3.16474
thorax -6.99641 -0.603532 3.10378
lowerneck -9.94653 1.24081 4.9774
upperneck 13.1766 1.80632 -6.24844
head 5.71071 0.670878 -2.64828
rclavicle 1.07095e-014 9.54166e-015
rhumerus 4.36195 -41.5439 14.7346
rradius 74.2819
rwrist 21.4664
rhand 26.0288 1.26805
rfingers 7.12502
rthumb 50.104 -19.8999
lclavicle 1.07095e-014 9.54166e-015
lhumerus -107.13 -53.6356 136.726
lradius 92.4528
lwrist 24.6671
lhand 5.15897 6.63772
lfingers 7.12502
lthumb 30.5216 34.1293
rfemur -19.7822 0.181298 21.9754
rtibia 26.3982
rfoot -11.2388 -7.22947
rtoes -9.63745
lfemur -20.6734 2.5606 -15.396
ltibia 30.1596
lfoot -13.6898 4.13978
ltoes -23.6676
293
root 0.211105 17.8948 0.732105 10.8527 -2.94806 -2.55952
lowerback 0.82481 -1.15546 0.494838
upperback -6.38885 -1.34929 3.15544
thorax -7.05653 -0.595088 3.12009
lowerneck -9.93635 1.24984 4.9837
upperneck 13.1914 1.82026 -6.25936
head 5.71455 0.677269 -2.65183
rclavicle -4.34841e-015 -1.66979e-014
rhumerus 4.33852 -41.4866 14.7811
rradius 74.2217
rwrist 21.5523
rhand 25.8426 1.30001
rfingers 7.12502
rthumb 49.9336 -19.9575
lclavicle -4.34841e-015 -1.66979e-014
lhumerus -107.069 -53.5848 136.705
lradius 92.4133
lwrist 24.6536
lhand 5.07801 6.59135
lfingers 7.12502
lthumb 30.4444 34.0972
rfemur -19.7244 0.167345 21.9444
rtibia 26.374
rfoot -11.1597 -7.24803
rtoes -10.3408
lfemur -20.5983 2.62367 -15.4483
ltibia 30.1552
lfoot -13.6621 4.17572
ltoes -24.113
294
root 0.210727 17.8961 0.736928 10.7857 -2.99366 -2.65616
lowerback 0.882426 -1.15153 0.592917
upperback -6.37765 -1.3363 3.19067
thorax -7.08024 -0.593001 3.10264
lowerneck -9.90459 1.26734 4.98384
upperneck 13.1778 1.85165 -6.30617
head 5.70711 0.689734 -2.66417
rclavicle 2.96189e-014 -7.95139e-015
rhumerus 4.43637 -41.4434 14.7361
rradius 74.1358
rwrist 21.7131
rhand 25.7272 1.31428
rfingers 7.12502
rthumb 49.828 -19.9983
lclavicle 2.96189e-014 -7.95139e-015
lhumerus -106.947 -53.4985 136.602
lradius 92.3974
lwrist 24.6465
lhand 5.11855 6.54921
lfingers 7.12502
lthumb 30.483 34.0479
rfemur -19.6178 0.187215 22.0517
rtibia 26.3543
rfoot -11.1273 -7.2334
rtoes -11.1379
lfemur -20.4668 2.7038 -15.3528
ltibia 30.1543
lfoot -13.6499 4.20974
ltoes -24.2396
295
root 0.210139 17.896 0.740926 10.7476 -3.03222 -2.66947
lowerback 0.930286 -1.14774 0.627699
upperback -6.4032 -1.32813 3.18402
thorax -7.13686 -0.590555 3.07787
lowerneck -9.82179 1.26896 4.9778
upperneck 13.1735 1.86073 -6.32562
head 5.69216 0.69379 -2.66867
rclavicle 1.30452e-014 -2.22639e-014
rhumerus 4.52559 -41.3691 14.6577
rradius 74.0131
rwrist 21.9221
rhand 25.6071 1.26399
rfingers 7.12502
rthumb 49.718 -20.1056
lclavicle 1.30452e-014 -2.22639e-014
lhumerus -106.908 -53.3813 136.547
lradius 92.4025
lwrist 24.6452
lhand 5.13478 6.65994
lfingers 7.12502
lthumb 30.4985 34.1558
rfemur -19.5402 0.164508 22.0672
rtibia 26.3191
rfoot -11.15 -7.1496
rtoes -10.8162
lfemur -20.4015 2.75056 -15.3411
ltibia 30.1724
lfoot -13.658 4.21876
ltoes -24.3909
296
root 0.208499 17.8969 0.741001 10.7597 -3.02705 -2.65843
lowerback 1.00319 -1.15568 0.66793
upperback -6.46212 -1.33581 3.14524
thorax -7.24392 -0.596792 3.01915
lowerneck -9.7433 1.27473 4.98083
upperneck 13.1673 1.86737 -6.30152
head 5.67697 0.700212 -2.661
rclavicle 7.23079e-015 -2.42517e-014
rhumerus 4.60439 -41.3204 14.5532
rradius 73.825
rwrist 22.1149
rhand 25.437 1.27455
rfingers 7.12502
rthumb 49.562 -20.1751
lclavicle 7.23079e-015 -2.42517e-014
lhumerus -106.933 -53.3017 136.518
lradius 92.3685
lwrist 24.6311
lhand 5.05608 6.63293
lfingers 7.12502
lthumb 30.4235 34.1427
rfemur -19.5437 0.176209 22.0565
rtibia 26.2972
rfoot -11.187 -7.11007
rtoes -9.89396
lfemur -20.4163 2.71904 -15.3332
ltibia 30.1665
lfoot -13.7404 4.07687
ltoes -23.1833
297
root 0.206954 17.8968 0.742058 10.81 -3.0089 -2.6505
lowerback 0.967123 -1.17606 0.684121
upperback -6.4811 -1.36291 3.14506
thorax -7.2425 -0.611181 3.01129
lowerneck -9.72996 1.29929 4.99369
upperneck 13.1546 1.90545 -6.34692
head 5.6735 0.716408 -2.67448
rclavicle 3.38182e-014 -4.37326e-015
rhumerus 4.7196 -41.357 14.4751
rradius 73.6586
rwrist 22.281
rhand 25.2811 1.29195
rfingers 7.12502
rthumb 49.4191 -20.2305
lclavicle 3.38182e-014 -4.37326e-015
lhumerus -106.76 -53.2536 136.383
lradius 92.341
lwrist 24.6369
lhand 4.98989 6.71181
lfingers 7.12502
lthumb 30.3603 34.2332
rfemur -19.5998 0.160583 22.057
rtibia 26.3081
rfoot -11.1726 -7.08077
rtoes -9.61945
lfemur -20.4617 2.69183 -15.3299
ltibia 30.1375
lfoot -13.725 4.05512
ltoes -22.8185
